<svg width="16" height="16" viewBox="0 0 16 16" fill="none" xmlns="http://www.w3.org/2000/svg">
<path d="M9.33337 5.33398H10C10.1769 5.33398 10.3464 5.26375 10.4714 5.13872C10.5965 5.0137 10.6667 4.84413 10.6667 4.66732C10.6667 4.49051 10.5965 4.32094 10.4714 4.19591C10.3464 4.07089 10.1769 4.00065 10 4.00065H9.33337C9.15656 4.00065 8.98699 4.07089 8.86197 4.19591C8.73695 4.32094 8.66671 4.49051 8.66671 4.66732C8.66671 4.84413 8.73695 5.0137 8.86197 5.13872C8.98699 5.26375 9.15656 5.33398 9.33337 5.33398V5.33398ZM9.33337 8.00065H10C10.1769 8.00065 10.3464 7.93041 10.4714 7.80539C10.5965 7.68036 10.6667 7.5108 10.6667 7.33398C10.6667 7.15717 10.5965 6.9876 10.4714 6.86258C10.3464 6.73756 10.1769 6.66732 10 6.66732H9.33337C9.15656 6.66732 8.98699 6.73756 8.86197 6.86258C8.73695 6.9876 8.66671 7.15717 8.66671 7.33398C8.66671 7.5108 8.73695 7.68036 8.86197 7.80539C8.98699 7.93041 9.15656 8.00065 9.33337 8.00065V8.00065ZM6.00004 5.33398H6.66671C6.84352 5.33398 7.01309 5.26375 7.13811 5.13872C7.26314 5.0137 7.33337 4.84413 7.33337 4.66732C7.33337 4.49051 7.26314 4.32094 7.13811 4.19591C7.01309 4.07089 6.84352 4.00065 6.66671 4.00065H6.00004C5.82323 4.00065 5.65366 4.07089 5.52864 4.19591C5.40361 4.32094 5.33337 4.49051 5.33337 4.66732C5.33337 4.84413 5.40361 5.0137 5.52864 5.13872C5.65366 5.26375 5.82323 5.33398 6.00004 5.33398V5.33398ZM6.00004 8.00065H6.66671C6.84352 8.00065 7.01309 7.93041 7.13811 7.80539C7.26314 7.68036 7.33337 7.5108 7.33337 7.33398C7.33337 7.15717 7.26314 6.9876 7.13811 6.86258C7.01309 6.73756 6.84352 6.66732 6.66671 6.66732H6.00004C5.82323 6.66732 5.65366 6.73756 5.52864 6.86258C5.40361 6.9876 5.33337 7.15717 5.33337 7.33398C5.33337 7.5108 5.40361 7.68036 5.52864 7.80539C5.65366 7.93041 5.82323 8.00065 6.00004 8.00065V8.00065ZM14 13.334H13.3334V2.00065C13.3334 1.82384 13.2631 1.65427 13.1381 1.52925C13.0131 1.40422 12.8435 1.33398 12.6667 1.33398H3.33337C3.15656 1.33398 2.98699 1.40422 2.86197 1.52925C2.73695 1.65427 2.66671 1.82384 2.66671 2.00065V13.334H2.00004C1.82323 13.334 1.65366 13.4042 1.52864 13.5292C1.40361 13.6543 1.33337 13.8238 1.33337 14.0007C1.33337 14.1775 1.40361 14.347 1.52864 14.4721C1.65366 14.5971 1.82323 14.6673 2.00004 14.6673H14C14.1769 14.6673 14.3464 14.5971 14.4714 14.4721C14.5965 14.347 14.6667 14.1775 14.6667 14.0007C14.6667 13.8238 14.5965 13.6543 14.4714 13.5292C14.3464 13.4042 14.1769 13.334 14 13.334ZM8.66671 13.334H7.33337V10.6673H8.66671V13.334ZM12 13.334H10V10.0007C10 9.82384 9.9298 9.65427 9.80478 9.52925C9.67975 9.40422 9.51019 9.33398 9.33337 9.33398H6.66671C6.4899 9.33398 6.32033 9.40422 6.1953 9.52925C6.07028 9.65427 6.00004 9.82384 6.00004 10.0007V13.334H4.00004V2.66732H12V13.334Z" fill="#6C738D"/>
</svg>
