<svg width="16" height="16" viewBox="0 0 16 16" fill="none" xmlns="http://www.w3.org/2000/svg">
<path d="M13.64 6.41956C13.5464 5.4455 13.2022 4.51228 12.6408 3.71077C12.0795 2.90926 11.3201 2.26678 10.4367 1.84588C9.5533 1.42499 8.57596 1.24004 7.59985 1.30902C6.62374 1.37801 5.68213 1.6986 4.86671 2.23955C4.16617 2.70799 3.57808 3.32575 3.14467 4.04848C2.71127 4.77121 2.44331 5.58096 2.36004 6.41956C2.27836 7.25266 2.38316 8.0935 2.66682 8.88107C2.95049 9.66864 3.40591 10.3832 4.00004 10.9729L7.53338 14.5129C7.59535 14.5754 7.66909 14.625 7.75032 14.6588C7.83156 14.6927 7.9187 14.7101 8.00671 14.7101C8.09472 14.7101 8.18185 14.6927 8.26309 14.6588C8.34433 14.625 8.41807 14.5754 8.48004 14.5129L12 10.9729C12.5942 10.3832 13.0496 9.66864 13.3333 8.88107C13.6169 8.0935 13.7217 7.25266 13.64 6.41956V6.41956ZM11.0667 10.0329L8.00004 13.0996L4.93338 10.0329C4.48144 9.58092 4.13524 9.03444 3.91969 8.43273C3.70413 7.83102 3.62457 7.18902 3.68671 6.55289C3.74925 5.90696 3.95455 5.283 4.28776 4.72612C4.62096 4.16924 5.07375 3.69336 5.61338 3.33289C6.32067 2.86305 7.15091 2.61242 8.00004 2.61242C8.84917 2.61242 9.67941 2.86305 10.3867 3.33289C10.9247 3.69197 11.3765 4.16574 11.7096 4.72018C12.0427 5.27462 12.2489 5.89596 12.3134 6.53956C12.3775 7.17784 12.299 7.82241 12.0834 8.42659C11.8678 9.03077 11.5205 9.57944 11.0667 10.0329V10.0329ZM8.00004 3.99956C7.4067 3.99956 6.82668 4.1755 6.33333 4.50515C5.83998 4.83479 5.45547 5.30333 5.2284 5.8515C5.00134 6.39968 4.94193 7.00288 5.05769 7.58483C5.17344 8.16677 5.45917 8.70132 5.87872 9.12088C6.29828 9.54043 6.83283 9.82616 7.41477 9.94191C7.99671 10.0577 8.59991 9.99826 9.14809 9.77119C9.69627 9.54413 10.1648 9.15961 10.4945 8.66627C10.8241 8.17292 11 7.5929 11 6.99956C10.9983 6.20445 10.6816 5.44241 10.1194 4.88018C9.55719 4.31795 8.79515 4.00132 8.00004 3.99956V3.99956ZM8.00004 8.66622C7.67041 8.66622 7.34817 8.56847 7.07409 8.38534C6.80001 8.2022 6.58639 7.9419 6.46024 7.63736C6.3341 7.33282 6.30109 6.99771 6.3654 6.6744C6.42971 6.3511 6.58844 6.05413 6.82153 5.82104C7.05462 5.58796 7.35159 5.42922 7.67489 5.36491C7.99819 5.3006 8.3333 5.33361 8.63785 5.45976C8.94239 5.5859 9.20269 5.79952 9.38583 6.0736C9.56896 6.34769 9.66671 6.66992 9.66671 6.99956C9.66671 7.44158 9.49111 7.86551 9.17855 8.17807C8.86599 8.49063 8.44207 8.66622 8.00004 8.66622V8.66622Z" fill="#6C738D"/>
</svg>
